<svg version="1.1" xmlns="http://www.w3.org/2000/svg" xmlns:xlink="http://www.w3.org/1999/xlink" x="0px" y="0px" width="1200px"
	 height="800px" viewBox="0 0 750 232" enable-background="new 0 0 750 232" xml:space="preserve">

	<!--<path class="path1" d="M130.518 152.743c-0.475-18.852-15.887-33.993-34.843-33.993-11.102 0-20.986 5.199-27.371 13.291-3.58-4.629-9.183-7.611-15.485-7.611-10.812 0-19.576 8.771-19.576 19.588 0 0.943 0.070 1.869 0.2 2.776-1.644-0.296-3.335-0.46-5.064-0.46-15.674-0-28.379 12.713-28.379 28.395s12.705 28.396 28.378 28.396h13.441l33.18 34.352 33.18-34.352 16.33-0.002c14.083-0.027 25.489-11.457 25.489-25.554 0-12.025-8.302-22.104-19.482-24.826zM75 221.875l-28.125-28.125h18.75v-28.125h18.75v28.125h18.75l-28.125 28.125z"></path>

	
	<path class="path1" d="M631.25 118.75v121.875h-98.438c-7.767 0-14.063-6.296-14.063-14.063s6.295-14.063 14.063-14.063h89.063v-112.5h-93.75c-10.312 0-18.75 8.438-18.75 18.75v112.5c0 10.313 8.438 18.75 18.75 18.75h112.5v-131.25h-9.375z"></path>
	<path class="path2" d="M532.821 221.875v0c-0.003 0-0.006 0-0.008 0-2.589 0-4.688 2.099-4.688 4.688s2.099 4.688 4.688 4.688c0.003 0 0.006-0 0.008-0v0h89.046v-9.375h-89.046z"></path>
	
	<path class="path1" d="M900 109.375v93.75h150v-93.75h-150zM1040.725 193.75h-131.25v-75h131.25v75zM998.438 212.5h-46.875l-4.688 18.75-9.375 9.375h75l-9.375-9.375z"></path>

	<path class="path1" d="M375 400c-41.421 0-75 10.493-75 23.438v18.75c0 12.944 33.579 23.438 75 23.438s75-10.493 75-23.438v-18.75c0-12.944-33.579-23.438-75-23.438z"></path>
	<path class="path2" d="M375 479.688c-41.421 0-75-10.493-75-23.438v28.125c0 12.944 33.579 23.438 75 23.438s75-10.493 75-23.438v-28.125c0 12.944-33.579 23.438-75 23.438z"></path>
	<path class="path3" d="M375 521.875c-41.421 0-75-10.493-75-23.438v28.125c0 12.944 33.579 23.438 75 23.438s75-10.493 75-23.438v-28.125c0 12.944-33.579 23.438-75 23.438z"></path>

	<path class="path1" d="M623.438 640.625v-112.5l19.533-18.75h59.377l19.528 18.75v112.5h-98.438zM717.188 603.125v-70.313h-89.063v103.125h89.063v-32.813zM712.5 565.625h-79.688v-28.125h79.688v28.125zM684.375 546.875h-23.438v4.688h23.438v-4.688zM712.5 598.438h-79.688v-28.125h79.688v28.125zM684.375 579.688h-23.438v4.688h23.438v-4.688zM712.5 631.25h-79.688v-28.125h79.688v28.125zM684.375 612.5h-23.438v4.688h23.438v-4.688z"></path>
-->
</svg>
